<svg preserveAspectRatio="none" overflow="visible" style="display: block;" width="20" height="20" viewBox="0 0 20 20" fill="none" xmlns="http://www.w3.org/2000/svg">
<g id="Icon L">
<g id="Vector">
<path d="M7.5 5.83333C5 5.83333 4.16667 8.33333 4.16667 10.4167C4.16667 12.9167 5.83333 16.6667 7.5 16.6667C8.40667 16.6283 8.89917 16.25 10 16.25C11.0933 16.25 11.25 16.6667 12.5 16.6667C13.75 16.6667 15.8333 14.1667 15.8333 12.5C15.81 12.4917 13.7733 12.1642 13.75 10C13.7342 8.19167 15.7633 7.53833 15.8333 7.5C14.9808 6.25667 13.3742 5.86417 12.9167 5.83333C11.7225 5.74083 10.5583 6.66667 10 6.66667C9.43333 6.66667 8.41667 5.83333 7.5 5.83333Z" stroke="#0072EB" stroke-width="1.5" stroke-linecap="round" stroke-linejoin="round"/>
<path d="M10 3.33333C10.442 3.33333 10.866 3.15774 11.1785 2.84518C11.4911 2.53262 11.6667 2.10869 11.6667 1.66667C11.2246 1.66667 10.8007 1.84226 10.4882 2.15482C10.1756 2.46738 10 2.89131 10 3.33333Z" stroke="#0072EB" stroke-width="1.5" stroke-linecap="round" stroke-linejoin="round"/>
</g>
</g>
</svg>
